<?xml version="1.0" encoding="UTF-8"?>
<svg width="10px" height="18px" viewBox="0 0 10 18" version="1.1" xmlns="http://www.w3.org/2000/svg" xmlns:xlink="http://www.w3.org/1999/xlink">
    <!-- Generator: Sketch 52.2 (67145) - http://www.bohemiancoding.com/sketch -->
    <title>返 回</title>
    <desc>Created with Sketch.</desc>
    <g id="页面1" stroke="none" stroke-width="1" fill="none" fill-rule="evenodd">
        <g id="昨日收益备份-16" transform="translate(-15.000000, -57.000000)" fill="#FFFFFF" fill-rule="nonzero">
            <g id="返-回" transform="translate(20.000000, 66.000000) rotate(-90.000000) translate(-20.000000, -66.000000) translate(11.000000, 61.000000)">
                <path d="M9.94441392,1.05147189 C9.94441392,1.28907217 9.8454138,1.52667245 9.65641358,1.71627208 L1.68061133,9.4286834 C1.29361088,9.79888442 0.678609579,9.79888442 0.291609128,9.4382834 C-0.0782139554,9.09389941 -0.0988348778,8.51491925 0.245548941,8.14509616 C0.257160958,8.13262642 0.269118949,8.12048342 0.281409237,8.10868145 L8.25782672,0.395672474 C8.63462657,0.0248720428 9.25982847,0.0248720428 9.64682892,0.386072469 C9.85502975,0.557072668 9.94442868,0.80427237 9.94442868,1.05087266 L9.94441392,1.05147189 Z M18.0000209,8.67808428 C18.0000209,8.91568456 17.9010208,9.15328484 17.7120206,9.34348564 C17.3256196,9.71368666 16.7100189,9.71368666 16.3236196,9.35248565 L8.26801255,1.7162756 C7.89818948,1.37189161 7.87756855,0.792911446 8.22195237,0.42308836 C8.23356439,0.410618617 8.24552238,0.398475616 8.25781249,0.386673649 C8.63461234,0.0164726328 9.25981424,0.0164726328 9.64681469,0.377073644 L17.7024217,8.0132837 C17.900422,8.19388333 18.0000215,8.4416842 18.0000215,8.67808389 L18.0000209,8.67808428 Z" id="形状"></path>
            </g>
        </g>
    </g>
</svg>