<?xml version="1.0" encoding="UTF-8"?>
<svg width="80px" height="80px" viewBox="0 0 80 80" version="1.1" xmlns="http://www.w3.org/2000/svg" xmlns:xlink="http://www.w3.org/1999/xlink">
    <!-- Generator: Sketch 52.2 (67145) - http://www.bohemiancoding.com/sketch -->
    <title>Clip 2</title>
    <desc>Created with Sketch.</desc>
    <defs>
        <path d="M188.04408,122 C188.04408,122 180.442234,126.542794 171.113739,134.806265 C170.686556,135.183278 170.432827,135.720127 170.414192,136.289948 C170.395556,136.859051 170.612731,137.409519 171.013394,137.813769 C171.483582,138.290411 172.15876,138.503288 172.81817,138.381439 C176.257134,137.724892 179.795726,138.812209 182.266362,141.287165 C184.397258,143.418795 185.514671,146.358208 185.339784,149.370013 C185.164897,152.381818 183.713479,155.178597 181.349639,157.057929 C177.484209,160.155028 171.815437,160.097687 168.013797,156.92963 C165.052188,154.479044 163.659544,150.610716 164.376294,146.828399 C164.500291,146.166834 164.290284,145.485917 163.813645,145.011425 L163.735519,144.934015 C163.339874,144.536216 162.799445,144.318322 162.237513,144.32979 C161.677015,144.341975 161.14447,144.582805 160.763876,144.996373 C156.241903,149.975671 151.795906,155.684626 148,162.044394 C148,162.044394 152.430229,169.472845 160.507996,178.642294 C160.953098,179.147606 161.588138,179.446493 162.262599,179.467996 C162.93706,179.488065 163.590736,179.230033 164.068808,178.753391 C164.627873,178.186438 164.878735,177.384388 164.741119,176.600258 C164.113246,172.877432 165.520943,169.098699 168.433096,166.688251 C172.237602,163.515893 177.906375,163.447084 181.769655,166.531999 C185.555526,169.531619 186.821305,174.72021 184.843793,179.137572 C182.864848,183.554217 178.147919,186.074328 173.382968,185.259378 C172.603861,185.123911 171.806836,185.375492 171.244904,185.933127 L171.162478,186.015554 C170.686556,186.49148 170.42781,187.142293 170.445729,187.813893 C170.464364,188.486209 170.758948,189.120538 171.259956,189.567793 C176.153922,193.977987 181.743135,198.303605 187.956637,202.004212 C187.956637,202.004212 195.559199,197.461417 204.887694,189.197947 C205.314877,188.820934 205.56789,188.284084 205.586525,187.714981 C205.605161,187.145877 205.388702,186.594692 204.988039,186.191159 C204.512834,185.714517 203.833356,185.503791 203.170362,185.627073 C199.26121,186.370348 195.271066,184.857278 192.842718,181.712156 C189.881826,177.919805 189.922681,172.432327 192.933029,168.667212 C195.958429,164.840456 201.202168,163.568933 205.633831,165.588032 C210.064059,167.607131 212.536129,172.395773 211.620123,177.184414 C211.498275,177.842395 211.710433,178.519012 212.186355,178.988487 L212.264481,179.06733 C212.660126,179.465129 213.200555,179.683022 213.762487,179.671554 C214.323702,179.660086 214.85553,179.41854 215.236124,179.004972 C219.758814,174.024957 224.204811,168.316719 228,161.956234 C228,161.956234 223.569054,154.5285 215.492004,145.359768 C215.046902,144.853738 214.411862,144.554852 213.738118,144.534066 C213.063656,144.512563 212.409981,144.771312 211.931909,145.247237 C211.371411,145.81419 211.120548,146.617673 211.258881,147.401803 C211.88532,151.124629 210.478341,154.903363 207.565471,157.315244 C203.762398,160.486169 198.092909,160.554977 194.229629,157.47078 C190.440174,154.471876 189.172244,149.280418 191.150473,144.86234 C193.129418,140.443544 197.848497,137.923433 202.615598,138.739817 C203.393988,138.875284 204.191731,138.623703 204.754379,138.066067 L204.836088,137.98364 C205.310577,137.508432 205.569323,136.859051 205.551404,136.188169 C205.532769,135.516569 205.240335,134.882957 204.740044,134.435702 C199.846795,130.024791 194.257582,125.701324 188.04408,122 Z" id="path-1"></path>
    </defs>
    <g id="Page-1" stroke="none" stroke-width="1" fill="none" fill-rule="evenodd">
        <g id="ios手机登陆-1" transform="translate(-148.000000, -122.000000)">
            <mask id="mask-2" fill="white">
                <use xlink:href="#path-1"></use>
            </mask>
            <use id="Clip-2" fill="#D8D8D8" xlink:href="#path-1"></use>
        </g>
    </g>
</svg>