<?xml version="1.0" encoding="UTF-8"?>
<svg width="32px" height="32px" viewBox="0 0 32 32" version="1.1" xmlns="http://www.w3.org/2000/svg" xmlns:xlink="http://www.w3.org/1999/xlink">
    <!-- Generator: Sketch 52.2 (67145) - http://www.bohemiancoding.com/sketch -->
    <title>Group 2</title>
    <desc>Created with Sketch.</desc>
    <g id="页面1" stroke="none" stroke-width="1" fill="none" fill-rule="evenodd">
        <g id="昨日收益备份-4" transform="translate(-15.000000, -559.000000)">
            <g id="编组-11" transform="translate(15.000000, 556.000000)">
                <g id="Group-2" transform="translate(0.000000, 3.000000)">
                    <path d="M11.5374834,-4.66128138e-16 L20.4625166,4.66128138e-16 C24.4743509,-2.70833872e-16 25.929139,0.41771525 27.3958057,1.20209717 C28.8624723,1.98647908 30.0135209,3.13752767 30.7979028,4.60419433 C31.5822847,6.070861 32,7.52564907 32,11.5374834 L32,20.4625166 C32,24.4743509 31.5822847,25.929139 30.7979028,27.3958057 C30.0135209,28.8624723 28.8624723,30.0135209 27.3958057,30.7979028 C25.929139,31.5822847 24.4743509,32 20.4625166,32 L11.5374834,32 C7.52564907,32 6.070861,31.5822847 4.60419433,30.7979028 C3.13752767,30.0135209 1.98647908,28.8624723 1.20209717,27.3958057 C0.41771525,25.929139 1.80555915e-16,24.4743509 -3.10752092e-16,20.4625166 L3.10752092e-16,11.5374834 C-1.80555915e-16,7.52564907 0.41771525,6.070861 1.20209717,4.60419433 C1.98647908,3.13752767 3.13752767,1.98647908 4.60419433,1.20209717 C6.070861,0.41771525 7.52564907,2.70833872e-16 11.5374834,-4.66128138e-16 Z" id="Rectangle-3" fill="#A9A9AE"></path>
                    <polygon id="Shape" fill="#FFFFFF" fill-rule="nonzero" points="10.427 19.214 9 19.768 9.688 17.009 11.132 16.429 13.213 8 18.342 8 16.823 14.196 18.233 13.625 17.553 16.375 16.126 16.946 15.278 20.429 23 20.429 22.127 24 9.252 24"></polygon>
                </g>
            </g>
        </g>
    </g>
</svg>