<?xml version="1.0" encoding="UTF-8"?>
<svg width="24px" height="22px" viewBox="0 0 24 22" version="1.1" xmlns="http://www.w3.org/2000/svg" xmlns:xlink="http://www.w3.org/1999/xlink">
    <!-- Generator: Sketch 52.2 (67145) - http://www.bohemiancoding.com/sketch -->
    <title>公告</title>
    <desc>Created with Sketch.</desc>
    <g id="页面1" stroke="none" stroke-width="1" fill="none" fill-rule="evenodd">
        <g id="昨日收益备份-4" transform="translate(-28.000000, -347.000000)" fill-rule="nonzero">
            <g id="编组-3" transform="translate(15.000000, 340.000000)">
                <g id="公告" transform="translate(13.000000, 7.000000)">
                    <path d="M0.876967768,7.09925798 L0.977192744,7.19113075 C1.03259408,7.22897968 1.10553713,7.22897968 1.16093848,7.19113076 L11.4882763,1.00641402 C11.5263313,0.980346025 11.5360486,0.928364135 11.5099806,0.890308967 C11.5041488,0.881795486 11.4967898,0.874436467 11.4882763,0.868604657 L11.3838753,0.776731883 C11.3301618,0.738380654 11.2580191,0.738380654 11.2043056,0.776731881 L0.897838473,6.95308385 C0.855205552,6.96321847 0.828860649,7.00599493 0.838995206,7.04862785 C0.84408389,7.07003424 0.857832996,7.08836627 0.876958278,7.09924521 L0.876967768,7.09925798 Z" id="路径" fill="#FF7B03"></path>
                    <path d="M1.08159351,7.51687836 C0.970788561,7.51825366 0.863497621,7.47801947 0.780919218,7.40412539 L0.680694242,7.31225261 C0.593338247,7.23269192 0.548481451,7.11668308 0.559589081,6.9990497 C0.569906935,6.87755151 0.640485253,6.76933179 0.747510827,6.71090202 L11.0748486,0.513658734 C11.2427833,0.411880104 11.457271,0.430457927 11.6052059,0.55959513 L11.7054309,0.655644108 C11.7939268,0.734419207 11.8390156,0.851028006 11.826536,0.968847017 C11.8127984,1.08914126 11.7431591,1.19592166 11.6386143,1.25699272 L1.31127647,7.44589184 C1.24254896,7.48990063 1.16316792,7.5144366 1.08159349,7.51688443 L1.08159351,7.51687836 Z M22.5923773,6.98650748 L22.4879764,7.07838026 C22.4338757,7.11550315 22.3625073,7.11550315 22.3084066,7.07838025 L11.9810688,0.906190067 C11.9406288,0.889311694 11.9215283,0.842846101 11.9384068,0.802405944 C11.9432171,0.790880631 11.9506801,0.78065363 11.9601886,0.772556698 L12.0604136,0.676507719 C12.116475,0.640859386 12.1880978,0.640859386 12.2441593,0.676507713 L22.5714971,6.85285968 C22.6119371,6.86973806 22.6310376,6.91620365 22.6141591,6.95664381 C22.6093488,6.96816912 22.6018858,6.97839612 22.5923773,6.98649305 L22.5923773,6.98650748 Z" id="形状" fill="#FF7B03"></path>
                    <path d="M22.3877075,7.40830118 C22.3069182,7.40836919 22.2275938,7.38673532 22.1580245,7.34566059 L11.8306867,1.15676147 C11.7251857,1.09669932 11.6551928,0.989376648 11.6427649,0.868615751 C11.6295699,0.750703044 11.6747816,0.633775931 11.7638701,0.555412877 L11.8640951,0.463540103 C12.0120291,0.334402873 12.2265183,0.31582505 12.3944524,0.417603689 L22.7217902,6.60232043 C22.826335,6.66339274 22.8959742,6.77017293 22.909712,6.89046614 C22.9208197,7.00809952 22.8759628,7.12410898 22.7886068,7.20366906 L22.6842058,7.29554204 C22.6040501,7.37066158 22.4975231,7.41117179 22.3877077,7.40829501 L22.3877075,7.40830118 Z" id="路径" fill="#FF7B03"></path>
                    <path d="M10.323176,1.41985366 L10.323176,1.41985348 C10.3231759,2.20401763 10.9588655,2.83970713 11.7430297,2.83970713 C12.5271938,2.83970725 13.1628834,2.20401763 13.1628834,1.41985348 C13.1628834,1.41985346 13.1628834,1.41985342 13.1628834,1.4198534 C13.1628834,0.635689244 12.5271938,-2.57061722e-07 11.7430297,-2.57061722e-07 C10.9588655,-2.57061722e-07 10.323176,0.635689244 10.323176,1.4198534 L10.323176,1.41985366 Z" id="路径" fill="#FF7B03"></path>
                    <path d="M21.3812568,4.84421095 L2.08795767,4.84421095 C0.922842141,4.84421095 -6.180864e-05,5.51237677 -6.180864e-05,6.33923216 L-6.180864e-05,19.6023362 C-6.180864e-05,20.4375439 0.939546956,21.0973574 2.08795767,21.0973574 L21.3812568,21.0973574 C22.5421961,21.0973574 23.4692763,20.4291915 23.4692763,19.6023362 L23.4692763,6.33923216 C23.4818044,5.51237677 22.5505485,4.84421095 21.3812568,4.84421095 Z M4.05487342,9.70094846 L14.3404492,9.70094846 C14.9297246,9.73783236 15.3775261,10.2454352 15.3406428,10.8347105 C15.306979,11.3725425 14.8782792,11.8012411 14.3404492,11.8349041 L4.05487345,11.8349041 C3.46559812,11.7980204 3.01779658,11.2904174 3.05467986,10.7011421 C3.08834373,10.1633101 3.51704351,9.73461151 4.05487345,9.70094846 Z M18.5749591,16.9589104 L4.05487342,16.9589104 C3.46559808,16.9220267 3.01779655,16.4144237 3.05467982,15.8251484 C3.08834369,15.2873164 3.51704347,14.8586178 4.05487342,14.8249548 L18.5749591,14.8249548 C19.1642345,14.8618387 19.612036,15.3694415 19.5751528,15.9587168 C19.5414889,16.4965488 19.1127891,16.9252474 18.5749592,16.9589104 Z" id="形状" fill="#0096FF"></path>
                </g>
            </g>
        </g>
    </g>
</svg>