<?xml version="1.0" encoding="UTF-8"?>
<svg width="49px" height="42px" viewBox="0 0 49 42" version="1.1" xmlns="http://www.w3.org/2000/svg" xmlns:xlink="http://www.w3.org/1999/xlink">
    <!-- Generator: Sketch 52.2 (67145) - http://www.bohemiancoding.com/sketch -->
    <title>Group 17</title>
    <desc>Created with Sketch.</desc>
    <g id="Page-1" stroke="none" stroke-width="1" fill="none" fill-rule="evenodd">
        <g id="首页" transform="translate(-311.000000, -481.000000)">
            <g id="Group-15">
                <g id="Group-17" transform="translate(312.000000, 482.000000)">
                    <g id="Group-13">
                        <circle id="Oval-Copy-2" stroke="#2F9C5D" stroke-width="2" fill="#8CDBAD" cx="24.5" cy="18.5" r="18.5"></circle>
                        <g id="Group-2" transform="translate(0.000000, 25.000000)" fill="#FFFFFF">
                            <path d="M0.54,6.22 L1.704,6.22 L1.704,3.208 L2.94,3.208 L2.94,6.22 L4.008,6.22 L4.008,7.396 L2.94,7.396 L2.94,10.888 C3.348,10.72 3.756,10.528 4.164,10.312 L4.164,11.56 C3.084,12.1 1.944,12.556 0.72,12.916 L0.408,11.68 C0.84,11.584 1.272,11.476 1.704,11.344 L1.704,7.396 L0.54,7.396 L0.54,6.22 Z M6.624,3.124 C6.768,3.556 6.924,4.036 7.068,4.576 L8.496,4.576 C8.676,4.096 8.808,3.592 8.904,3.076 L10.14,3.244 C10.032,3.724 9.888,4.168 9.72,4.576 L11.172,4.576 L11.172,8.92 L4.38,8.92 L4.38,4.576 L5.88,4.576 C5.724,4.132 5.556,3.724 5.376,3.34 L6.624,3.124 Z M10.092,7.924 L10.092,5.608 L8.22,5.608 L8.22,7.924 L10.092,7.924 Z M7.26,7.924 L7.26,5.608 L5.46,5.608 L5.46,7.924 L7.26,7.924 Z M6.48,5.92 C6.648,6.364 6.816,6.88 6.972,7.456 L6.192,7.66 C6.06,7.144 5.892,6.652 5.7,6.172 L6.48,5.92 Z M9,5.86 L9.816,6.076 C9.672,6.688 9.48,7.228 9.264,7.696 L8.496,7.42 C8.688,7.012 8.856,6.484 9,5.86 Z M10.74,9.532 L10.74,14.26 L9.54,14.26 L9.54,13.852 L6.036,13.852 L6.036,14.26 L4.836,14.26 L4.836,9.532 L10.74,9.532 Z M6.036,12.844 L9.54,12.844 L9.54,12.148 L6.036,12.148 L6.036,12.844 Z M6.036,11.212 L9.54,11.212 L9.54,10.528 L6.036,10.528 L6.036,11.212 Z M23.052,4.804 L23.052,14.068 L21.828,14.068 L21.828,13.336 L20.088,13.336 L20.088,14.068 L18.888,14.068 L18.888,4.804 L23.052,4.804 Z M20.088,12.136 L21.828,12.136 L21.828,5.992 L20.088,5.992 L20.088,12.136 Z M14.4,3.172 L15.648,3.172 L15.648,5.464 L18.036,5.464 C18.036,9.448 17.976,11.908 17.856,12.844 C17.736,13.72 17.136,14.164 16.08,14.164 C15.888,14.164 15.564,14.14 15.132,14.092 L14.82,12.952 C15.228,13 15.576,13.024 15.876,13.024 C16.332,13.024 16.608,12.76 16.692,12.256 C16.752,11.716 16.788,9.856 16.812,6.688 L15.648,6.688 C15.576,10.168 14.784,12.712 13.296,14.344 L12.348,13.504 C13.656,12.076 14.34,9.808 14.4,6.688 L12.624,6.688 L12.624,5.464 L14.4,5.464 L14.4,3.172 Z M25.98,5.812 L30.66,5.812 L29.784,5.248 C30.372,4.564 30.792,3.832 31.032,3.064 L32.232,3.328 C32.172,3.496 32.112,3.652 32.052,3.808 L35.208,3.808 L35.208,4.864 L33.516,4.864 C33.648,5.056 33.768,5.248 33.864,5.416 L32.856,5.8 C32.688,5.476 32.496,5.164 32.28,4.864 L31.548,4.864 C31.344,5.2 31.128,5.524 30.888,5.812 L34.164,5.812 L34.164,10.756 L32.784,10.756 L32.784,11.32 L35.364,11.32 L35.364,12.4 L32.784,12.4 L32.784,14.272 L31.548,14.272 L31.548,12.4 L28.44,12.4 C28.32,12.688 28.164,12.952 27.984,13.168 C27.564,13.648 26.88,14.02 25.944,14.284 L25.308,13.288 C26.136,13.06 26.7,12.784 26.988,12.46 C27,12.436 27.012,12.424 27.024,12.4 L24.636,12.4 L24.636,11.32 L27.432,11.32 C27.444,11.236 27.456,11.164 27.456,11.092 L27.456,10.756 L25.98,10.756 L25.98,5.812 Z M28.704,10.756 L28.704,11.092 C28.704,11.164 28.692,11.248 28.692,11.32 L31.548,11.32 L31.548,10.756 L28.704,10.756 Z M32.94,9.82 L32.94,9.34 L27.204,9.34 L27.204,9.82 L32.94,9.82 Z M27.204,8.488 L32.94,8.488 L32.94,8.056 L27.204,8.056 L27.204,8.488 Z M27.204,7.204 L32.94,7.204 L32.94,6.76 L27.204,6.76 L27.204,7.204 Z M26.592,4.924 C26.316,5.368 26.016,5.776 25.68,6.16 L24.648,5.5 C25.368,4.732 25.872,3.916 26.172,3.04 L27.36,3.304 C27.288,3.496 27.204,3.688 27.132,3.868 L29.844,3.868 L29.844,4.924 L28.608,4.924 C28.728,5.092 28.836,5.248 28.932,5.404 L27.912,5.788 C27.756,5.488 27.576,5.2 27.372,4.924 L26.592,4.924 Z M40.812,3.172 L42.084,3.172 L42.084,4.48 C42.072,4.816 42.06,5.152 42.036,5.464 L46.596,5.464 C46.548,7.6 46.476,9.316 46.356,10.624 C46.236,11.92 46.02,12.832 45.732,13.36 C45.444,13.852 44.988,14.116 44.352,14.164 L42.648,14.164 L42.312,12.952 C42.816,12.976 43.284,13 43.74,13 C44.352,13 44.748,12.604 44.94,11.836 C45.132,11.032 45.264,9.316 45.324,6.688 L41.928,6.688 C41.736,8.344 41.376,9.736 40.86,10.852 C40.14,12.328 38.976,13.468 37.368,14.26 L36.696,13.192 C38.28,12.328 39.348,11.248 39.9,9.94 C40.26,9.028 40.512,7.936 40.656,6.688 L37.344,6.688 L37.344,5.464 L40.764,5.464 C40.788,5.14 40.8,4.816 40.812,4.48 L40.812,3.172 Z" id="增加算力" stroke="#2F9C5D" stroke-width="2"></path>
                            <path d="M0.54,6.22 L1.704,6.22 L1.704,3.208 L2.94,3.208 L2.94,6.22 L4.008,6.22 L4.008,7.396 L2.94,7.396 L2.94,10.888 C3.348,10.72 3.756,10.528 4.164,10.312 L4.164,11.56 C3.084,12.1 1.944,12.556 0.72,12.916 L0.408,11.68 C0.84,11.584 1.272,11.476 1.704,11.344 L1.704,7.396 L0.54,7.396 L0.54,6.22 Z M6.624,3.124 C6.768,3.556 6.924,4.036 7.068,4.576 L8.496,4.576 C8.676,4.096 8.808,3.592 8.904,3.076 L10.14,3.244 C10.032,3.724 9.888,4.168 9.72,4.576 L11.172,4.576 L11.172,8.92 L4.38,8.92 L4.38,4.576 L5.88,4.576 C5.724,4.132 5.556,3.724 5.376,3.34 L6.624,3.124 Z M10.092,7.924 L10.092,5.608 L8.22,5.608 L8.22,7.924 L10.092,7.924 Z M7.26,7.924 L7.26,5.608 L5.46,5.608 L5.46,7.924 L7.26,7.924 Z M6.48,5.92 C6.648,6.364 6.816,6.88 6.972,7.456 L6.192,7.66 C6.06,7.144 5.892,6.652 5.7,6.172 L6.48,5.92 Z M9,5.86 L9.816,6.076 C9.672,6.688 9.48,7.228 9.264,7.696 L8.496,7.42 C8.688,7.012 8.856,6.484 9,5.86 Z M10.74,9.532 L10.74,14.26 L9.54,14.26 L9.54,13.852 L6.036,13.852 L6.036,14.26 L4.836,14.26 L4.836,9.532 L10.74,9.532 Z M6.036,12.844 L9.54,12.844 L9.54,12.148 L6.036,12.148 L6.036,12.844 Z M6.036,11.212 L9.54,11.212 L9.54,10.528 L6.036,10.528 L6.036,11.212 Z M23.052,4.804 L23.052,14.068 L21.828,14.068 L21.828,13.336 L20.088,13.336 L20.088,14.068 L18.888,14.068 L18.888,4.804 L23.052,4.804 Z M20.088,12.136 L21.828,12.136 L21.828,5.992 L20.088,5.992 L20.088,12.136 Z M14.4,3.172 L15.648,3.172 L15.648,5.464 L18.036,5.464 C18.036,9.448 17.976,11.908 17.856,12.844 C17.736,13.72 17.136,14.164 16.08,14.164 C15.888,14.164 15.564,14.14 15.132,14.092 L14.82,12.952 C15.228,13 15.576,13.024 15.876,13.024 C16.332,13.024 16.608,12.76 16.692,12.256 C16.752,11.716 16.788,9.856 16.812,6.688 L15.648,6.688 C15.576,10.168 14.784,12.712 13.296,14.344 L12.348,13.504 C13.656,12.076 14.34,9.808 14.4,6.688 L12.624,6.688 L12.624,5.464 L14.4,5.464 L14.4,3.172 Z M25.98,5.812 L30.66,5.812 L29.784,5.248 C30.372,4.564 30.792,3.832 31.032,3.064 L32.232,3.328 C32.172,3.496 32.112,3.652 32.052,3.808 L35.208,3.808 L35.208,4.864 L33.516,4.864 C33.648,5.056 33.768,5.248 33.864,5.416 L32.856,5.8 C32.688,5.476 32.496,5.164 32.28,4.864 L31.548,4.864 C31.344,5.2 31.128,5.524 30.888,5.812 L34.164,5.812 L34.164,10.756 L32.784,10.756 L32.784,11.32 L35.364,11.32 L35.364,12.4 L32.784,12.4 L32.784,14.272 L31.548,14.272 L31.548,12.4 L28.44,12.4 C28.32,12.688 28.164,12.952 27.984,13.168 C27.564,13.648 26.88,14.02 25.944,14.284 L25.308,13.288 C26.136,13.06 26.7,12.784 26.988,12.46 C27,12.436 27.012,12.424 27.024,12.4 L24.636,12.4 L24.636,11.32 L27.432,11.32 C27.444,11.236 27.456,11.164 27.456,11.092 L27.456,10.756 L25.98,10.756 L25.98,5.812 Z M28.704,10.756 L28.704,11.092 C28.704,11.164 28.692,11.248 28.692,11.32 L31.548,11.32 L31.548,10.756 L28.704,10.756 Z M32.94,9.82 L32.94,9.34 L27.204,9.34 L27.204,9.82 L32.94,9.82 Z M27.204,8.488 L32.94,8.488 L32.94,8.056 L27.204,8.056 L27.204,8.488 Z M27.204,7.204 L32.94,7.204 L32.94,6.76 L27.204,6.76 L27.204,7.204 Z M26.592,4.924 C26.316,5.368 26.016,5.776 25.68,6.16 L24.648,5.5 C25.368,4.732 25.872,3.916 26.172,3.04 L27.36,3.304 C27.288,3.496 27.204,3.688 27.132,3.868 L29.844,3.868 L29.844,4.924 L28.608,4.924 C28.728,5.092 28.836,5.248 28.932,5.404 L27.912,5.788 C27.756,5.488 27.576,5.2 27.372,4.924 L26.592,4.924 Z M40.812,3.172 L42.084,3.172 L42.084,4.48 C42.072,4.816 42.06,5.152 42.036,5.464 L46.596,5.464 C46.548,7.6 46.476,9.316 46.356,10.624 C46.236,11.92 46.02,12.832 45.732,13.36 C45.444,13.852 44.988,14.116 44.352,14.164 L42.648,14.164 L42.312,12.952 C42.816,12.976 43.284,13 43.74,13 C44.352,13 44.748,12.604 44.94,11.836 C45.132,11.032 45.264,9.316 45.324,6.688 L41.928,6.688 C41.736,8.344 41.376,9.736 40.86,10.852 C40.14,12.328 38.976,13.468 37.368,14.26 L36.696,13.192 C38.28,12.328 39.348,11.248 39.9,9.94 C40.26,9.028 40.512,7.936 40.656,6.688 L37.344,6.688 L37.344,5.464 L40.764,5.464 C40.788,5.14 40.8,4.816 40.812,4.48 L40.812,3.172 Z" id="增加算力"></path>
                        </g>
                    </g>
                    <g id="增加" transform="translate(16.000000, 8.000000)" fill="#FFFFFF">
                        <polygon id="Path" points="15.9446366 9.96539792 9.9653979 9.96539792 9.9653979 15.9446367 5.97923874 15.9446367 5.97923874 9.96539792 0 9.96539792 0 5.97923875 5.97923874 5.97923875 5.97923876 0 9.96539792 0 9.96539792 5.97923875 15.9446367 5.97923875 15.9446367 9.96539792"></polygon>
                    </g>
                </g>
            </g>
        </g>
    </g>
</svg>