<?xml version="1.0" encoding="UTF-8"?>
<svg width="49px" height="42px" viewBox="0 0 49 42" version="1.1" xmlns="http://www.w3.org/2000/svg" xmlns:xlink="http://www.w3.org/1999/xlink">
    <!-- Generator: Sketch 52.2 (67145) - http://www.bohemiancoding.com/sketch -->
    <title>Group 18</title>
    <desc>Created with Sketch.</desc>
    <g id="Page-1" stroke="none" stroke-width="1" fill="none" fill-rule="evenodd">
        <g id="首页" transform="translate(-251.000000, -481.000000)">
            <g id="Group-15">
                <g id="Group-18" transform="translate(252.000000, 482.000000)">
                    <g id="Group-14">
                        <circle id="Oval" stroke="#5891E8" stroke-width="2" fill="#8CD8FE" cx="24.5" cy="18.5" r="18.5"></circle>
                        <g id="Group-12" transform="translate(0.000000, 25.000000)" fill="#FFFFFF">
                            <path d="M5.172,3.52 L5.172,6.58 C5.82,5.608 6.276,4.456 6.528,3.112 L7.74,3.268 C7.644,3.784 7.512,4.276 7.368,4.744 L11.184,4.744 C11.184,9.016 11.124,11.656 11.016,12.664 C10.896,13.648 10.344,14.152 9.36,14.152 C9.024,14.152 8.448,14.128 7.608,14.092 L7.308,12.976 C8.028,13.012 8.652,13.036 9.18,13.036 C9.564,13.036 9.78,12.736 9.852,12.16 C9.912,11.572 9.948,9.508 9.96,5.956 L6.9,5.956 C6.564,6.664 6.168,7.3 5.712,7.864 L5.172,7.156 L5.172,11.212 L4.068,11.212 L4.068,4.672 L1.944,4.672 L1.944,11.212 L0.816,11.212 L0.816,3.52 L5.172,3.52 Z M8.772,8.452 C9.12,9.388 9.456,10.408 9.792,11.524 L8.772,12.04 C8.7,11.752 8.628,11.488 8.556,11.224 C7.668,11.416 6.696,11.56 5.64,11.668 L5.436,10.576 C5.796,10.456 6.312,9.196 6.996,6.772 L8.136,7.168 C7.704,8.452 7.26,9.556 6.804,10.48 C7.308,10.42 7.788,10.336 8.268,10.228 C8.124,9.76 7.968,9.316 7.824,8.908 L8.772,8.452 Z M2.472,5.38 L3.504,5.38 L3.504,9.316 C3.468,10.66 3.264,11.74 2.892,12.544 C2.532,13.3 1.944,13.876 1.128,14.284 L0.468,13.24 C1.236,12.844 1.764,12.352 2.028,11.776 C2.292,11.14 2.436,10.324 2.472,9.316 L2.472,5.38 Z M4.032,11.488 C4.68,12.1 5.22,12.7 5.676,13.288 L4.776,14.188 C4.416,13.588 3.9,12.952 3.228,12.268 L4.032,11.488 Z M13.944,6.868 C14.856,7.228 15.684,7.648 16.428,8.152 L15.78,9.136 C15,8.536 14.196,8.068 13.356,7.732 L13.944,6.868 Z M15.024,5.236 C15.96,5.584 16.812,5.992 17.592,6.472 L16.944,7.456 C16.128,6.88 15.3,6.436 14.436,6.112 L15.024,5.236 Z M18.072,5.428 L19.308,5.428 L19.308,7.96 C19.284,8.5 19.212,9.004 19.104,9.472 L23.388,9.472 L23.388,10.696 L18.696,10.696 C18.624,10.828 18.564,10.96 18.504,11.08 C20.208,11.788 21.756,12.556 23.172,13.372 L22.296,14.332 C20.856,13.444 19.38,12.676 17.856,12.004 C17.844,12.016 17.832,12.028 17.832,12.04 C16.956,12.976 15.528,13.708 13.56,14.212 L12.852,13.108 C14.856,12.604 16.212,11.956 16.908,11.188 C17.028,11.032 17.148,10.864 17.256,10.696 L12.804,10.696 L12.804,9.472 L17.808,9.472 C17.952,9.004 18.036,8.5 18.072,7.96 L18.072,5.428 Z M13.224,3.736 L22.548,3.736 L22.548,4.516 C22.368,5.212 22.14,5.92 21.864,6.616 L20.7,6.28 C20.916,5.872 21.108,5.404 21.252,4.888 L13.224,4.888 L13.224,3.736 Z M25.98,5.812 L30.66,5.812 L29.784,5.248 C30.372,4.564 30.792,3.832 31.032,3.064 L32.232,3.328 C32.172,3.496 32.112,3.652 32.052,3.808 L35.208,3.808 L35.208,4.864 L33.516,4.864 C33.648,5.056 33.768,5.248 33.864,5.416 L32.856,5.8 C32.688,5.476 32.496,5.164 32.28,4.864 L31.548,4.864 C31.344,5.2 31.128,5.524 30.888,5.812 L34.164,5.812 L34.164,10.756 L32.784,10.756 L32.784,11.32 L35.364,11.32 L35.364,12.4 L32.784,12.4 L32.784,14.272 L31.548,14.272 L31.548,12.4 L28.44,12.4 C28.32,12.688 28.164,12.952 27.984,13.168 C27.564,13.648 26.88,14.02 25.944,14.284 L25.308,13.288 C26.136,13.06 26.7,12.784 26.988,12.46 C27,12.436 27.012,12.424 27.024,12.4 L24.636,12.4 L24.636,11.32 L27.432,11.32 C27.444,11.236 27.456,11.164 27.456,11.092 L27.456,10.756 L25.98,10.756 L25.98,5.812 Z M28.704,10.756 L28.704,11.092 C28.704,11.164 28.692,11.248 28.692,11.32 L31.548,11.32 L31.548,10.756 L28.704,10.756 Z M32.94,9.82 L32.94,9.34 L27.204,9.34 L27.204,9.82 L32.94,9.82 Z M27.204,8.488 L32.94,8.488 L32.94,8.056 L27.204,8.056 L27.204,8.488 Z M27.204,7.204 L32.94,7.204 L32.94,6.76 L27.204,6.76 L27.204,7.204 Z M26.592,4.924 C26.316,5.368 26.016,5.776 25.68,6.16 L24.648,5.5 C25.368,4.732 25.872,3.916 26.172,3.04 L27.36,3.304 C27.288,3.496 27.204,3.688 27.132,3.868 L29.844,3.868 L29.844,4.924 L28.608,4.924 C28.728,5.092 28.836,5.248 28.932,5.404 L27.912,5.788 C27.756,5.488 27.576,5.2 27.372,4.924 L26.592,4.924 Z M40.812,3.172 L42.084,3.172 L42.084,4.48 C42.072,4.816 42.06,5.152 42.036,5.464 L46.596,5.464 C46.548,7.6 46.476,9.316 46.356,10.624 C46.236,11.92 46.02,12.832 45.732,13.36 C45.444,13.852 44.988,14.116 44.352,14.164 L42.648,14.164 L42.312,12.952 C42.816,12.976 43.284,13 43.74,13 C44.352,13 44.748,12.604 44.94,11.836 C45.132,11.032 45.264,9.316 45.324,6.688 L41.928,6.688 C41.736,8.344 41.376,9.736 40.86,10.852 C40.14,12.328 38.976,13.468 37.368,14.26 L36.696,13.192 C38.28,12.328 39.348,11.248 39.9,9.94 C40.26,9.028 40.512,7.936 40.656,6.688 L37.344,6.688 L37.344,5.464 L40.764,5.464 C40.788,5.14 40.8,4.816 40.812,4.48 L40.812,3.172 Z" id="购买算力" stroke="#5891E8" stroke-width="2"></path>
                            <path d="M5.172,3.52 L5.172,6.58 C5.82,5.608 6.276,4.456 6.528,3.112 L7.74,3.268 C7.644,3.784 7.512,4.276 7.368,4.744 L11.184,4.744 C11.184,9.016 11.124,11.656 11.016,12.664 C10.896,13.648 10.344,14.152 9.36,14.152 C9.024,14.152 8.448,14.128 7.608,14.092 L7.308,12.976 C8.028,13.012 8.652,13.036 9.18,13.036 C9.564,13.036 9.78,12.736 9.852,12.16 C9.912,11.572 9.948,9.508 9.96,5.956 L6.9,5.956 C6.564,6.664 6.168,7.3 5.712,7.864 L5.172,7.156 L5.172,11.212 L4.068,11.212 L4.068,4.672 L1.944,4.672 L1.944,11.212 L0.816,11.212 L0.816,3.52 L5.172,3.52 Z M8.772,8.452 C9.12,9.388 9.456,10.408 9.792,11.524 L8.772,12.04 C8.7,11.752 8.628,11.488 8.556,11.224 C7.668,11.416 6.696,11.56 5.64,11.668 L5.436,10.576 C5.796,10.456 6.312,9.196 6.996,6.772 L8.136,7.168 C7.704,8.452 7.26,9.556 6.804,10.48 C7.308,10.42 7.788,10.336 8.268,10.228 C8.124,9.76 7.968,9.316 7.824,8.908 L8.772,8.452 Z M2.472,5.38 L3.504,5.38 L3.504,9.316 C3.468,10.66 3.264,11.74 2.892,12.544 C2.532,13.3 1.944,13.876 1.128,14.284 L0.468,13.24 C1.236,12.844 1.764,12.352 2.028,11.776 C2.292,11.14 2.436,10.324 2.472,9.316 L2.472,5.38 Z M4.032,11.488 C4.68,12.1 5.22,12.7 5.676,13.288 L4.776,14.188 C4.416,13.588 3.9,12.952 3.228,12.268 L4.032,11.488 Z M13.944,6.868 C14.856,7.228 15.684,7.648 16.428,8.152 L15.78,9.136 C15,8.536 14.196,8.068 13.356,7.732 L13.944,6.868 Z M15.024,5.236 C15.96,5.584 16.812,5.992 17.592,6.472 L16.944,7.456 C16.128,6.88 15.3,6.436 14.436,6.112 L15.024,5.236 Z M18.072,5.428 L19.308,5.428 L19.308,7.96 C19.284,8.5 19.212,9.004 19.104,9.472 L23.388,9.472 L23.388,10.696 L18.696,10.696 C18.624,10.828 18.564,10.96 18.504,11.08 C20.208,11.788 21.756,12.556 23.172,13.372 L22.296,14.332 C20.856,13.444 19.38,12.676 17.856,12.004 C17.844,12.016 17.832,12.028 17.832,12.04 C16.956,12.976 15.528,13.708 13.56,14.212 L12.852,13.108 C14.856,12.604 16.212,11.956 16.908,11.188 C17.028,11.032 17.148,10.864 17.256,10.696 L12.804,10.696 L12.804,9.472 L17.808,9.472 C17.952,9.004 18.036,8.5 18.072,7.96 L18.072,5.428 Z M13.224,3.736 L22.548,3.736 L22.548,4.516 C22.368,5.212 22.14,5.92 21.864,6.616 L20.7,6.28 C20.916,5.872 21.108,5.404 21.252,4.888 L13.224,4.888 L13.224,3.736 Z M25.98,5.812 L30.66,5.812 L29.784,5.248 C30.372,4.564 30.792,3.832 31.032,3.064 L32.232,3.328 C32.172,3.496 32.112,3.652 32.052,3.808 L35.208,3.808 L35.208,4.864 L33.516,4.864 C33.648,5.056 33.768,5.248 33.864,5.416 L32.856,5.8 C32.688,5.476 32.496,5.164 32.28,4.864 L31.548,4.864 C31.344,5.2 31.128,5.524 30.888,5.812 L34.164,5.812 L34.164,10.756 L32.784,10.756 L32.784,11.32 L35.364,11.32 L35.364,12.4 L32.784,12.4 L32.784,14.272 L31.548,14.272 L31.548,12.4 L28.44,12.4 C28.32,12.688 28.164,12.952 27.984,13.168 C27.564,13.648 26.88,14.02 25.944,14.284 L25.308,13.288 C26.136,13.06 26.7,12.784 26.988,12.46 C27,12.436 27.012,12.424 27.024,12.4 L24.636,12.4 L24.636,11.32 L27.432,11.32 C27.444,11.236 27.456,11.164 27.456,11.092 L27.456,10.756 L25.98,10.756 L25.98,5.812 Z M28.704,10.756 L28.704,11.092 C28.704,11.164 28.692,11.248 28.692,11.32 L31.548,11.32 L31.548,10.756 L28.704,10.756 Z M32.94,9.82 L32.94,9.34 L27.204,9.34 L27.204,9.82 L32.94,9.82 Z M27.204,8.488 L32.94,8.488 L32.94,8.056 L27.204,8.056 L27.204,8.488 Z M27.204,7.204 L32.94,7.204 L32.94,6.76 L27.204,6.76 L27.204,7.204 Z M26.592,4.924 C26.316,5.368 26.016,5.776 25.68,6.16 L24.648,5.5 C25.368,4.732 25.872,3.916 26.172,3.04 L27.36,3.304 C27.288,3.496 27.204,3.688 27.132,3.868 L29.844,3.868 L29.844,4.924 L28.608,4.924 C28.728,5.092 28.836,5.248 28.932,5.404 L27.912,5.788 C27.756,5.488 27.576,5.2 27.372,4.924 L26.592,4.924 Z M40.812,3.172 L42.084,3.172 L42.084,4.48 C42.072,4.816 42.06,5.152 42.036,5.464 L46.596,5.464 C46.548,7.6 46.476,9.316 46.356,10.624 C46.236,11.92 46.02,12.832 45.732,13.36 C45.444,13.852 44.988,14.116 44.352,14.164 L42.648,14.164 L42.312,12.952 C42.816,12.976 43.284,13 43.74,13 C44.352,13 44.748,12.604 44.94,11.836 C45.132,11.032 45.264,9.316 45.324,6.688 L41.928,6.688 C41.736,8.344 41.376,9.736 40.86,10.852 C40.14,12.328 38.976,13.468 37.368,14.26 L36.696,13.192 C38.28,12.328 39.348,11.248 39.9,9.94 C40.26,9.028 40.512,7.936 40.656,6.688 L37.344,6.688 L37.344,5.464 L40.764,5.464 C40.788,5.14 40.8,4.816 40.812,4.48 L40.812,3.172 Z" id="购买算力-copy"></path>
                        </g>
                    </g>
                    <g id="购买" transform="translate(16.000000, 9.000000)" fill="#FFFFFF" fill-rule="nonzero">
                        <path d="M14.8363766,2.39999654 C15.1272864,2.39999654 15.4181961,2.47272397 15.5636509,2.54545124 C15.6363782,2.61817867 15.7091056,2.61817867 15.7818324,2.69090594 L15.9272871,2.83636064 C16.0000146,2.98181534 16.0000146,3.05454214 16.0000146,3.199997 L16.0000146,3.56363336 L15.7818331,4.14545279 L15.4181967,5.16363522 L15.0545603,6.25454587 C14.9091056,6.69091044 14.8363788,6.98182015 14.7636506,7.12727344 C14.6909233,7.34545495 14.6181959,7.4909098 14.5454691,7.63636466 C14.4727418,7.78181936 14.3272876,7.92727437 14.2545594,8.00000102 C14.0363779,8.14545572 13.7454682,8.21818253 13.4545585,8.21818253 L4.87273598,8.21818253 L5.09091749,9.67272953 L13.2363801,9.67272953 C13.7454713,9.67272953 14.036381,9.89091103 14.036381,10.3272756 C14.036381,10.5454571 13.9636537,10.690912 13.8909263,10.909095 C13.818199,11.0545497 13.6000166,11.1272765 13.3091069,11.1272765 L4.58183111,11.1272765 C4.50910384,11.1272765 4.43637641,11.1272765 4.43637641,11.0545493 L4.29092171,10.9090946 C4.14546701,10.8363673 4.000012,10.6909131 3.92728535,10.5454582 C3.85455792,10.4727309 3.85455792,10.4000035 3.78183065,10.3272767 C3.70910322,10.181822 3.70910322,10.1090952 3.63637595,10.036367 C3.56364852,9.81818548 3.56364852,9.67273062 3.49092125,9.52727577 L3.41819382,9.0909112 L3.27273912,8.21818362 L3.05455762,6.98181812 L2.7636479,5.52727111 L2.03637362,1.96362634 L0.872736328,1.96362634 C0.727281628,1.89089891 0.581826615,1.89089891 0.436371758,1.81817164 L0.145462044,1.52726193 C0.145462044,1.4545345 0.0727347721,1.38180723 0.0727346159,1.30908042 C0.0727346159,1.23635315 7.34375854e-06,1.16362572 7.34375854e-06,1.16362572 L7.34375854e-06,1.01817102 L7.34375854e-06,0.872716322 C7.34375854e-06,0.654534818 0.0727346159,0.509079961 0.218188848,0.363625105 C0.29091612,0.290897833 0.363643548,0.290897833 0.509098561,0.218170404 C0.581825833,0.218170404 0.727280065,0.145443132 0.800008275,0.145442976 L2.4727446,0.145442976 C2.6909261,0.145442976 2.83638096,0.145442976 2.98183581,0.218170404 C3.05456324,0.218170404 3.12729051,0.290897676 3.12729051,0.290897676 C3.20001794,0.290897676 3.20001794,0.363624948 3.27274521,0.436352377 C3.34547249,0.509079805 3.41819992,0.581807077 3.41819992,0.72726209 L3.49092734,1.0181718 C3.49092734,1.09089908 3.49092734,1.1636265 3.56365477,1.30908152 L3.56365477,1.38180895 L3.6363822,1.81817352 L3.70910963,2.39999294 L14.8363882,2.39999294 L14.8363766,2.39999654 Z M12.1454673,11.4909134 L12.436377,11.4909134 C12.5091042,11.4909134 12.6545585,11.5636406 12.7272867,11.5636408 C12.9454682,11.6363681 13.090923,11.7090955 13.2363779,11.8545505 C13.3818326,12.0000052 13.5272876,12.1454602 13.6000143,12.2909151 C13.6727415,12.4363698 13.745469,12.6545514 13.745469,12.8727345 L13.745469,13.1636442 C13.745469,13.2363715 13.6727417,13.3818257 13.6727415,13.4545539 C13.6000143,13.6000086 13.45456,13.8181903 13.3091052,13.9636451 C13.1636505,14.1090998 13.0181955,14.1818267 12.800014,14.2545549 C12.6545593,14.3272821 12.4363776,14.4000096 12.2181945,14.4000096 C12.000013,14.4000096 11.78183,14.3272823 11.6363751,14.2545549 C11.4181936,14.1818276 11.2727387,14.0363734 11.2000105,13.9636451 C11.0545558,13.8181904 10.981829,13.6727354 10.9091008,13.4545539 C10.8363735,13.3090992 10.7636461,13.0909176 10.7636461,12.8727345 L10.7636461,12.5818248 C10.7636461,12.5090975 10.8363734,12.3636433 10.8363735,12.2909151 C10.9091008,12.1454604 10.9818282,12.0000054 11.1272833,11.8545505 L11.3454648,11.636369 C11.418192,11.5636417 11.4909195,11.5636417 11.5636463,11.4909143 C11.6363735,11.4909143 11.709101,11.418187 11.7818278,11.418187 L12.0000093,11.418187 C12.0000093,11.4909143 12.0727365,11.4909143 12.145464,11.4909143 L12.1454673,11.4909134 Z M5.38181876,11.4909134 C5.60000027,11.4909134 5.74545512,11.4909134 5.96363819,11.5636408 C6.10909289,11.6363681 6.32727455,11.7090955 6.47272941,11.8545505 C6.54545668,12.0000052 6.54545668,12.072732 6.61818411,12.1454602 C6.69091138,12.2181875 6.69091138,12.2909149 6.76363881,12.3636417 C6.83636608,12.5818232 6.90909351,12.7272781 6.90909351,12.9454612 C6.90909351,13.1636427 6.83636624,13.3090975 6.76363881,13.5272806 C6.69091154,13.6727353 6.61818411,13.8909169 6.47272909,14.0363718 C6.32727439,14.1818265 6.18181938,14.2545533 5.96363788,14.3272815 C5.74545637,14.4000088 5.60000152,14.4727362 5.38181845,14.4727362 C5.16363695,14.4727362 4.94545388,14.4727362 4.79999902,14.4000089 C4.65454432,14.3272817 4.43636266,14.1818274 4.29090781,14.1090992 C4.14545311,13.9636445 4.0727263,13.8181895 3.99999809,13.600008 C3.92727066,13.4545533 3.92727066,13.2363716 3.92727066,13.0181886 C3.92727066,12.8000071 3.92727066,12.6545522 3.99999809,12.4363692 C3.99999809,12.3636419 4.07272536,12.2909145 4.14545279,12.2181876 L4.3636343,12.0000061 C4.3636343,11.8545514 4.3636343,11.7818246 4.43636172,11.7818246 L4.58181643,11.6363699 C4.6545437,11.6363699 4.72727113,11.5636427 4.72727113,11.5636427 C4.7999984,11.5636427 4.7999984,11.5636427 4.87272583,11.4909152 L5.38181704,11.4909152 L5.38181876,11.4909134 Z" id="Shape"></path>
                    </g>
                </g>
            </g>
        </g>
    </g>
</svg>