<?xml version="1.0" encoding="UTF-8"?>
<svg width="32px" height="32px" viewBox="0 0 32 32" version="1.1" xmlns="http://www.w3.org/2000/svg" xmlns:xlink="http://www.w3.org/1999/xlink">
    <!-- Generator: Sketch 52.2 (67145) - http://www.bohemiancoding.com/sketch -->
    <title>编组 12</title>
    <desc>Created with Sketch.</desc>
    <defs>
        <polygon id="path-1" points="0.000186206897 0.239927586 18.868531 0.239927586 18.868531 17.3793103 0.000186206897 17.3793103"></polygon>
    </defs>
    <g id="页面1" stroke="none" stroke-width="1" fill="none" fill-rule="evenodd">
        <g id="昨日收益备份-4" transform="translate(-15.000000, -479.000000)">
            <g id="编组-13" transform="translate(15.000000, 476.000000)">
                <g id="编组-12" transform="translate(0.000000, 3.000000)">
                    <path d="M11.5374834,-4.66128138e-16 L20.4625166,4.66128138e-16 C24.4743509,-2.70833872e-16 25.929139,0.41771525 27.3958057,1.20209717 C28.8624723,1.98647908 30.0135209,3.13752767 30.7979028,4.60419433 C31.5822847,6.070861 32,7.52564907 32,11.5374834 L32,20.4625166 C32,24.4743509 31.5822847,25.929139 30.7979028,27.3958057 C30.0135209,28.8624723 28.8624723,30.0135209 27.3958057,30.7979028 C25.929139,31.5822847 24.4743509,32 20.4625166,32 L11.5374834,32 C7.52564907,32 6.070861,31.5822847 4.60419433,30.7979028 C3.13752767,30.0135209 1.98647908,28.8624723 1.20209717,27.3958057 C0.41771525,25.929139 1.80555915e-16,24.4743509 -3.10752092e-16,20.4625166 L3.10752092e-16,11.5374834 C-1.80555915e-16,7.52564907 0.41771525,6.070861 1.20209717,4.60419433 C1.98647908,3.13752767 3.13752767,1.98647908 4.60419433,1.20209717 C6.070861,0.41771525 7.52564907,2.70833872e-16 11.5374834,-4.66128138e-16 Z" id="Rectangle-3" fill="#26A07B"></path>
                    <g id="编组" transform="translate(7.000000, 8.000000)">
                        <path d="M7.53622759,6.28755517 L7.53622759,8.97358966 C8.14264138,9.00648621 8.77853793,9.02417586 9.43429655,9.02417586 C10.0900552,9.02417586 10.7262621,9.00648621 11.3323655,8.97358966 L11.3323655,6.28755517 C10.7262621,6.25465862 10.0900552,6.23696897 9.43429655,6.23696897 C8.77853793,6.23696897 8.14264138,6.25465862 7.53622759,6.28755517" id="Fill-1" fill="#FFFFFF"></path>
                        <g transform="translate(0.000000, 0.070479)">
                            <mask id="mask-2" fill="white">
                                <use xlink:href="#path-1"></use>
                            </mask>
                            <g id="Clip-4"></g>
                            <path d="M9.43435862,9.25265172 C5.29963448,9.25265172 1.9476,8.55561724 1.9476,7.69565172 C1.9476,6.97223793 4.3208069,6.36427241 7.53628966,6.18954828 L7.53628966,5.57537586 C8.14922069,5.54061724 8.78418621,5.52199655 9.43435862,5.52199655 C10.084531,5.52199655 10.7194966,5.54061724 11.3324276,5.57537586 L11.3324276,6.18954828 C14.5479103,6.36427241 16.9211172,6.97223793 16.9211172,7.69565172 C16.9211172,8.55561724 13.5690828,9.25265172 9.43435862,9.25265172 M18.868531,8.12175517 C18.868531,6.85182414 15.6331862,5.79261724 11.3324276,5.54775517 L11.3324276,4.03606552 L16.7404966,4.03606552 L16.7404966,0.239927586 L2.12822069,0.239927586 L2.12822069,4.03606552 L7.53628966,4.03606552 L7.53628966,5.54775517 C3.23553103,5.79261724 0.000186206897,6.85182414 0.000186206897,8.12175517 C0.000186206897,9.39168621 3.23553103,10.4512034 7.53628966,10.6957552 L7.53628966,17.3793414 L11.3324276,17.3793414 L11.3324276,10.6957552 C15.6331862,10.4512034 18.868531,9.39168621 18.868531,8.12175517" id="Fill-3" fill="#FFFFFF" mask="url(#mask-2)"></path>
                        </g>
                    </g>
                </g>
            </g>
        </g>
    </g>
</svg>