<?xml version="1.0" encoding="UTF-8"?>
<svg width="40px" height="40px" viewBox="0 0 40 40" version="1.1" xmlns="http://www.w3.org/2000/svg" xmlns:xlink="http://www.w3.org/1999/xlink">
    <!-- Generator: Sketch 52.2 (67145) - http://www.bohemiancoding.com/sketch -->
    <title>Group 3</title>
    <desc>Created with Sketch.</desc>
    <defs>
        <polygon id="path-1" points="0 0 39.99996 0 39.99996 39.99996 0 39.99996"></polygon>
        <linearGradient x1="0%" y1="0%" x2="96.4264236%" y2="96.4264236%" id="linearGradient-3">
            <stop stop-color="#FF8627" offset="0%"></stop>
            <stop stop-color="#FFB646" offset="100%"></stop>
        </linearGradient>
    </defs>
    <g id="Page-1" stroke="none" stroke-width="1" fill="none" fill-rule="evenodd">
        <g id="首页-copy" transform="translate(-133.000000, -631.000000)">
            <g id="Group-3" transform="translate(133.000000, 631.000000)">
                <mask id="mask-2" fill="white">
                    <use xlink:href="#path-1"></use>
                </mask>
                <g id="Clip-2"></g>
                <g id="Group-4" mask="url(#mask-2)">
                    <path d="M19.99996,-4e-05 C31.04556,-4e-05 39.99996,8.95436 39.99996,19.99996 C39.99996,31.04556 31.04556,39.99996 19.99996,39.99996 C8.95436,39.99996 -4e-05,31.04556 -4e-05,19.99996 C-4e-05,8.95436 8.95436,-4e-05 19.99996,-4e-05" id="Fill-1" fill="#FFFFFF"></path>
                    <g id="basechain-01" transform="translate(20.000000, 20.000000) rotate(-315.000000) translate(-20.000000, -20.000000) translate(9.000000, 9.000000)" fill="url(#linearGradient-3)" fill-rule="nonzero">
                        <path d="M17.5831511,14.1634819 C16.5718777,14.1634118 15.6086796,13.7316134 14.9354901,12.9765444 C14.2623005,12.2214753 13.9430857,11.2148822 14.0580251,10.2095979 C14.240067,8.55964343 15.5990876,7.22989442 17.2534422,7.0797224 C18.5378416,6.95850506 19.7866175,7.5452063 20.5137359,8.611477 C20.6415606,8.79768186 20.8529731,8.90879462 21.0787437,8.90843006 L21.1155394,8.90843006 C21.3037466,8.90900021 21.4839938,8.83250566 21.6143985,8.69672072 C21.7448033,8.56093577 21.814012,8.37768265 21.8059432,8.18954207 C21.6974927,5.93793063 21.3978013,3.53178733 20.7892196,1.12515961 C20.7892196,1.12515961 17.9748318,0.414991288 13.881793,0.156307874 C13.6560783,0.142005513 13.434488,0.221653478 13.269468,0.376400727 C13.1044479,0.531147977 13.010665,0.74724075 13.0103156,0.973534316 C13.0120956,1.2405083 13.1431143,1.49005302 13.3618115,1.64301087 C14.3942041,2.37655198 14.9569499,3.60553701 14.8379974,4.86686503 C14.6879096,6.5197261 13.3589066,7.87950951 11.7098777,8.06407577 C10.0993818,8.250404 8.56755799,7.32057382 7.98877104,5.80533209 C7.40998409,4.29009035 7.93152592,2.57504168 9.25570058,1.63913546 C9.47278572,1.48652549 9.60238207,1.23802317 9.60332323,0.972565464 L9.60332323,0.933811395 C9.60328647,0.708248502 9.51040291,0.492657953 9.3465255,0.337762323 C9.18264809,0.182866692 8.96224517,0.102341337 8.73717154,0.115131675 C6.52894469,0.22945618 4.17595576,0.529315794 1.82296683,1.12467519 C1.82296683,1.12467519 1.09673568,4.00264928 0.84400724,8.17113389 C0.832274225,8.36179417 0.899636829,8.54885777 1.0302109,8.68821497 C1.16078498,8.82757216 1.34301349,8.90688853 1.53392683,8.90746121 C1.75969748,8.90782576 1.97110994,8.79671301 2.09893467,8.61050815 C2.8504042,7.50816392 4.1565436,6.92098844 5.4792986,7.0908642 C7.08184867,7.28802553 8.37454012,8.59791308 8.55367714,10.2033004 C8.74400003,11.8270146 7.80125827,13.370782 6.27040099,13.9422323 C4.7395437,14.5136826 3.0165875,13.9649877 2.09748221,12.6133191 C1.9701312,12.4282631 1.75944698,12.3183266 1.53489514,12.319757 L1.49761528,12.319757 C1.30940807,12.3191869 1.12916095,12.3956814 0.998756157,12.5314664 C0.868351369,12.6672513 0.799142716,12.8505044 0.807211529,13.038645 C0.915662047,15.2902565 1.21535344,17.6963998 1.82393514,20.1030275 C1.82393514,20.1030275 4.63832293,20.8131958 8.73136169,21.0718792 C8.9570764,21.0861816 9.17866671,21.0065336 9.34368674,20.8517864 C9.50870676,20.6970391 9.60248971,20.4809463 9.60283907,20.2546528 C9.60121571,19.9875073 9.47017933,19.7377483 9.2513432,19.5846918 C8.21895058,18.8511507 7.6562048,17.6221657 7.77515734,16.3608376 C7.92524511,14.7079766 9.25424812,13.3481932 10.903277,13.1636269 C12.5142655,12.9763244 14.0470648,13.9060461 14.6262277,15.4217882 C15.2053905,16.9375304 14.6834145,18.6532605 13.3584224,19.5890516 C13.1413373,19.7416616 13.0117409,19.9901639 13.0107998,20.2556216 L13.0107998,20.2943757 C13.0109917,20.5195874 13.1037357,20.7348103 13.2672741,20.8895536 C13.4308126,21.0442969 13.6507535,21.1249424 13.875499,21.112571 C16.0837259,20.9982465 18.4362306,20.6983869 20.7892196,20.1030275 C20.7892196,20.1030275 21.5154507,17.2250534 21.7681792,13.0565688 C21.7799122,12.8659085 21.7125496,12.6788449 21.5819755,12.5394877 C21.4514014,12.4001305 21.2691729,12.3208141 21.0782596,12.3202415 C20.8536272,12.3185406 20.6427447,12.4283046 20.5151883,12.6133191 C19.854823,13.5841011 18.7567957,14.1646262 17.5831511,14.1634819 Z" id="Shape"></path>
                    </g>
                </g>
            </g>
        </g>
    </g>
</svg>